<?xml version="1.0" encoding="utf-8"?>
<!-- Uploaded to: SVG Repo, www.svgrepo.com, Generator: SVG Repo Mixer Tools -->
<svg fill="#000000" version="1.1" id="Layer_1" xmlns="http://www.w3.org/2000/svg" xmlns:xlink="http://www.w3.org/1999/xlink" 
	 width="250px" height="250px" viewBox="0 0 208 256" enable-background="new 0 0 208 256" xml:space="preserve">
<path d="M99.202,126.467h10.99v10.99h-10.99V126.467z M35.8,2H205.82v194.654v0.202c-13.226,0-23.928,10.702-23.928,23.928
	s10.702,23.928,23.928,23.928V254H34.084v-0.101C16.416,253.192,2,238.87,2,221c0-1.514,0-186,0-186C2,16.726,17.526,2,35.8,2z
	 M183.204,196.654l-149.726,0.303c-12.317,0.909-22.111,11.207-22.111,23.726c0,13.226,10.803,24.029,24.029,23.928h147.505
	c-6.26-6.058-10.298-14.539-10.298-23.928C172.603,211.192,176.743,202.712,183.204,196.654z M49.79,150.737L49.79,150.737
	l109.652-0.001c3.375,0,4.756-2.39,3.067-5.314l-54.827-94.965c-0.823-1.425-1.901-2.296-2.986-2.296
	c-0.915,0-2.287,0.799-3.151,2.296L46.72,145.423C45.034,148.347,46.415,150.737,49.79,150.737z M108.819,119.14l1.832-36.634
	H98.744l1.832,36.634H108.819z"/>
</svg>