<?xml version="1.0" encoding="utf-8"?>
<!-- Uploaded to: SVG Repo, www.svgrepo.com, Generator: SVG Repo Mixer Tools -->
<svg fill="#000000" height="100px" width="100px" version="1.1" id="Layer_1" xmlns="http://www.w3.org/2000/svg" xmlns:xlink="http://www.w3.org/1999/xlink" 
	 viewBox="0 0 256 256" xml:space="preserve">
<g>
	<circle cx="127" cy="28.4" r="26.6"/>
	<path d="M213.4,171.2h-49.8V97.3c0-1.8,1.5-3.3,3.3-3.3c0.6,0,1.2,0.2,1.7,0.5l30.1,17.3l-20.8,36c-3.2,5.6-1.3,12.7,4.3,15.9
		c5.6,3.2,12.7,1.3,15.9-4.3l26.6-46c3.2-5.6,1.3-12.7-4.3-15.9l-51.6-29.8c-4.7-3.3-10-5.4-15.5-6L127,61.6h0h0l-26.3,0.1
		c-5.5,0.6-10.8,2.7-15.5,6L33.6,97.5c-5.6,3.2-7.5,10.3-4.3,15.9l26.6,46c3.2,5.6,10.3,7.5,15.9,4.3c5.6-3.2,7.5-10.3,4.3-15.9
		l-20.8-36l30.1-17.3c0.5-0.3,1.1-0.5,1.7-0.5c1.8,0,3.3,1.5,3.3,3.3v24.1v49.8H40.6c-9.2,0-16.6,7.4-16.6,16.6
		c0,4.6,1.8,8.7,4.8,11.7l49.7,49.7c6.5,6.5,17,6.5,23.5,0c6.5-6.5,6.5-17,0-23.5l-21.3-21.3l46.2,0l0-13.3c0,0,0,0,0,0s0,0,0,0
		l0,13.3l46.2,0l-21.3,21.3c-6.5,6.5-6.5,17,0,23.5c6.5,6.5,17,6.5,23.5,0l49.7-49.7c3-3,4.8-7.1,4.8-11.7
		C230,178.7,222.6,171.2,213.4,171.2z"/>
</g>
</svg>