<?xml version="1.0" encoding="utf-8"?>

<!DOCTYPE svg PUBLIC "-//W3C//DTD SVG 1.1//EN" "http://www.w3.org/Graphics/SVG/1.1/DTD/svg11.dtd">
<!-- Uploaded to: SVG Repo, www.svgrepo.com, Generator: SVG Repo Mixer Tools -->
<svg height="800px" width="800px" version="1.1" id="_x32_" xmlns="http://www.w3.org/2000/svg" xmlns:xlink="http://www.w3.org/1999/xlink" 
	 viewBox="0 0 512 512"  xml:space="preserve">
<style type="text/css">
	.st0{fill:#000000;}
</style>
<g>
	<path class="st0" d="M512,412.421l-6.265-87.121c2.166-25.848-23.736-39.641-37.367-44.438c-0.833-0.296-1.728-0.681-2.668-1.146
		l-21.856,50.891l-6.158-45.897l3.804-2.855l-1.038-12.477l10.167-3.383c-0.036-0.242-0.089-0.484-0.089-0.708
		c0-3.266,0-7.348,0-12.933c4.207-4.672,7.392-14.142,9.272-24.873c2.65-0.958,4.368-2.408,6.622-13.676
		c1.594-7.939-0.894-12.852-1.503-12.843c1.056-7.223,2.506-21.499-1.253-28.668c0,0,2.578-4.645,2.578-10.847
		c-10.848,1.548-45.476-20.666-55.814-2.588c-14.992-1.548-23.942,19.602-17.14,42.103c0,0-8.414-0.404-5.048,11.366
		c3.15,11.045,5.674,13.569,10.104,15.152c1.889,10.732,5.075,20.201,9.272,24.873c0,4.922,0,8.673,0,11.734l14.034,4.672
		l-1.074,13.095l3.804,2.855l-6.354,47.347l-27.478-51.509c-0.259,0.098-0.519,0.214-0.77,0.314
		c-7.088,2.487-21.982,7.428-34.118,15.233l-1.092,7.715l-0.072-0.877h0.009c0.206-2.471,0.107-4.834-0.206-7.116
		c-3.437-25.052-36.033-39.051-51.266-44.528l-30.431,60.852l-7.527-56.064l4.636-3.474l-1.316-15.976l12.548-4.18
		c0-3.794,0-8.529,0-14.991c4.905-5.46,8.646-16.558,10.866-29.133c5.173-1.853,8.145-4.806,11.832-17.757
		c3.938-13.783-5.916-13.319-5.916-13.319c7.966-26.358-2.515-51.141-20.075-49.315c-12.119-21.194-52.682,4.842-65.4,3.025
		c0,7.267,3.025,12.709,3.025,12.709c-4.412,8.395-2.712,25.124-1.468,33.581c-0.725-0.008-9.622,0.081-5.844,13.319
		c3.696,12.951,6.649,15.904,11.832,17.757c2.22,12.575,5.943,23.674,10.865,29.133c0,6.462,0,11.197,0,14.991l14.804,4.941
		l-1.253,15.215l4.637,3.474l-8.01,59.733l-32.266-64.522c-16.254,5.835-52.243,21.364-51.554,49.674l-0.698-4.868
		c-12.128-7.805-27.012-12.746-34.11-15.233c-0.242-0.099-0.51-0.216-0.76-0.314L93.97,332.057l-6.355-47.347l3.804-2.855
		l-1.074-13.095l14.033-4.672c0-3.061,0-6.812,0-11.734c4.198-4.672,7.384-14.142,9.272-24.873
		c4.422-1.584,6.945-4.108,10.115-15.152c3.347-11.77-5.058-11.366-5.058-11.366c6.793-22.501-2.157-43.651-17.139-42.103
		c-10.338-18.079-44.967,4.136-55.814,2.588c0,6.202,2.578,10.847,2.578,10.847c-3.768,7.17-2.31,21.445-1.253,28.668
		c-0.609-0.009-3.097,4.904-1.504,12.843c2.256,11.268,3.974,12.718,6.614,13.676c1.888,10.732,5.075,20.201,9.282,24.873
		c0,5.585,0,9.666,0,12.933c0,0.224-0.054,0.466-0.099,0.708l10.177,3.383l-1.038,12.477l3.813,2.855l-6.166,45.897L46.3,279.716
		c-0.939,0.464-1.844,0.85-2.667,1.146C30.002,285.659,4.1,299.451,6.265,325.3L0,412.421H512z"/>
</g>
</svg>