<?xml version="1.0" encoding="iso-8859-1"?>
<!-- Uploaded to: SVG Repo, www.svgrepo.com, Generator: SVG Repo Mixer Tools -->
<svg height="300px" width="300px" version="1.1" id="Capa_1" xmlns="http://www.w3.org/2000/svg" xmlns:xlink="http://www.w3.org/1999/xlink" 
	 viewBox="0 0 25.755 25.755" xml:space="preserve">
<g>
	<circle style="fill:#030104;" cx="12.642" cy="4.873" r="1.813"/>
	<path style="fill:#030104;" d="M13.507,0.117c-0.339,0.372,2.762,3.027,2.762,4.938c0,0.956-1.405,2.562-1.786,2.828
		c-0.233,0.163-0.991,0.134-1.907,0.146c-0.578,0.009-1.713-0.01-1.895-0.192C10.204,7.36,8.97,5.959,8.97,5.254
		c0-1.487,2.793-4.974,2.359-5.244C10.935-0.237,7.038,4,7.038,5.321c0,2.026,2.721,5.011,2.721,5.011s-0.022,4.092-0.022,4.519
		c0,3.673,1.281,10.904,2.392,10.904c0.684,0,0.086-3.844,0.086-5.665c0-2.164,0.427-4.328,0.427-4.328s3.407,1.187,3.044,1.561
		c-0.852,0.877-3.168,1.728-2.868,2.178c0.378,0.566,3.771-0.319,5.788-1.912c0.845-0.667-3.418-3.865-3.418-3.865
		c0-1.783,0.025-1.825-0.063-3.391c0,0,2.896-3.159,2.896-4.958C18.021,2.879,14.005-0.431,13.507,0.117z"/>
</g>
</svg>